<?xml version="1.0" encoding="utf-8"?>
<!-- Generator: Adobe Illustrator 25.4.1, SVG Export Plug-In . SVG Version: 6.00 Build 0)  -->
<svg version="1.1" id="Layer_1" xmlns="http://www.w3.org/2000/svg" xmlns:xlink="http://www.w3.org/1999/xlink" x="0px" y="0px"
	 viewBox="0 0 1000 1000" style="enable-background:new 0 0 1000 1000;" xml:space="preserve">
<style type="text/css">
	.st0{fill:#15233B;}
	.st1{fill:url(#SVGID_1_);}
	.st2{fill:url(#SVGID_00000093863985169068574470000006076264388223859867_);}
	.st3{fill:url(#SVGID_00000011027852776542551560000017007775484189210551_);}
	.st4{fill:url(#SVGID_00000057867124696053976470000001868545091025385095_);}
	.st5{fill:url(#SVGID_00000115478083319950355410000002387709852079843212_);}
	.st6{fill:url(#SVGID_00000146457808135815715380000000594288697219131267_);}
	.st7{fill:url(#SVGID_00000158732046603499203470000006489269584836773004_);}
	.st8{fill:url(#SVGID_00000020394384742288905620000008575564409604222866_);}
	.st9{fill:url(#SVGID_00000144298566566454224430000015313192243669288843_);}
	.st10{fill:url(#SVGID_00000125572033058141905490000005673886125888557240_);}
	.st11{fill:url(#SVGID_00000175315752459733351320000007307602523704435625_);}
	.st12{fill:url(#SVGID_00000072274335272174430890000009228831886886548907_);}
	.st13{fill:url(#SVGID_00000083778566606197283420000013505991999407205053_);}
	.st14{fill:url(#SVGID_00000119826796493599213340000003330766464840850102_);}
	.st15{fill:url(#SVGID_00000178905402447772818960000004293173089836257185_);}
	.st16{fill:url(#SVGID_00000173136681113260153430000011395998065925649332_);}
	.st17{fill:url(#SVGID_00000178203269519830958540000004869079000506871212_);}
	.st18{fill:url(#SVGID_00000154408034989748681080000014791931998181459118_);}
	.st19{fill:url(#SVGID_00000147927442297305854980000017811414723152346508_);}
	.st20{fill:url(#SVGID_00000122693130426862606160000014651275930096742032_);}
	.st21{fill:url(#SVGID_00000086680729546871583830000017215247397770187179_);}
	.st22{fill:url(#SVGID_00000173127987997100912070000013335877627019847042_);}
	.st23{fill:url(#SVGID_00000047045734925961254730000007327235622975936415_);}
	.st24{fill:url(#SVGID_00000152255809598793512680000014602588731069836950_);}
	.st25{fill:url(#SVGID_00000149343826414978393970000007818467162081500600_);}
	.st26{fill:url(#SVGID_00000140704554394337936340000004585779580697335481_);}
	.st27{fill:url(#SVGID_00000182510218561647009030000014249714658715315640_);}
	.st28{fill:url(#SVGID_00000089544560843211573830000013027678999292263047_);}
	.st29{fill:url(#SVGID_00000034774037163416669330000009748399893847319689_);}
	.st30{fill:url(#SVGID_00000127005066330423236030000001766047963278210188_);}
	.st31{fill:url(#SVGID_00000039840230673911313690000015251431083593004454_);}
	.st32{fill:url(#SVGID_00000125576915692770184870000002713575457001611444_);}
	.st33{fill:url(#SVGID_00000086664898240443173790000013258807094700388226_);}
	.st34{fill:url(#SVGID_00000000181349060343631820000001673776293969104543_);}
	.st35{fill:url(#SVGID_00000010992575470853074140000018214512645798299814_);}
	.st36{fill:url(#SVGID_00000026881232719636776870000014722257234586664382_);}
	.st37{fill:url(#SVGID_00000100340568989232107690000000228270255371207351_);}
	.st38{fill:url(#SVGID_00000121237400555929669180000005097877367439924903_);}
	.st39{fill:url(#SVGID_00000027597602378792423020000014169664980819174801_);}
	.st40{fill:url(#SVGID_00000132083017095480569040000017079758422951456696_);}
	.st41{fill:url(#SVGID_00000170272899717471355370000015470796705304647828_);}
	.st42{fill:url(#SVGID_00000015354766110431936400000008880452751402912168_);}
	.st43{fill:url(#SVGID_00000060718994538025858490000007063468713075734203_);}
	.st44{fill:url(#SVGID_00000171718971399989131350000017434996737257112239_);}
	.st45{fill:url(#SVGID_00000025416782734158475920000013373619991788232856_);}
	.st46{fill:url(#SVGID_00000120540932912660902450000012372015996779820478_);}
	.st47{fill:url(#SVGID_00000069385294903409034200000011487135164474348717_);}
	.st48{fill:url(#SVGID_00000081633730557589380850000016783399821756547772_);}
	.st49{fill:url(#SVGID_00000101783145194568868430000012847198913534977714_);}
	.st50{fill:url(#SVGID_00000165955962266357191470000009627997368776727435_);}
	.st51{fill:url(#SVGID_00000005241447082495598910000016913432653201558463_);}
</style>
<rect x="-20.6" y="-19.37" class="st0" width="1038.67" height="1038.67"/>
<g>
	<g>
		<g>
			<g>
				<g>
					<g>
						<linearGradient id="SVGID_1_" gradientUnits="userSpaceOnUse" x1="280.3185" y1="246.6012" x2="278.7151" y2="514.3709">
							<stop  offset="0" style="stop-color:#B85527"/>
							<stop  offset="0.3771" style="stop-color:#E8763C"/>
							<stop  offset="0.6145" style="stop-color:#B85527"/>
							<stop  offset="0.7905" style="stop-color:#E8763C"/>
							<stop  offset="0.9358" style="stop-color:#9C3F12"/>
						</linearGradient>
						<path class="st1" d="M278.51,396.05H233.7v102.89h44.81c30.17,0,46.33-16.78,46.33-51.36
							C324.84,412.83,308.54,396.05,278.51,396.05z M278.9,472.23h-21.54v-49.46h21.54c14.44,0,22.28,8.06,22.28,24.76
							C301.18,464.17,293.41,472.23,278.9,472.23z"/>
					</g>
				</g>
			</g>
			<g>
				<g>
					<g>
						
							<linearGradient id="SVGID_00000060030147130764490270000007095831571875160715_" gradientUnits="userSpaceOnUse" x1="232.1855" y1="224.0824" x2="230.3422" y2="531.9249">
							<stop  offset="0" style="stop-color:#B85527"/>
							<stop  offset="0.3771" style="stop-color:#E8763C"/>
							<stop  offset="0.6145" style="stop-color:#B85527"/>
							<stop  offset="0.7905" style="stop-color:#E8763C"/>
							<stop  offset="0.9358" style="stop-color:#9C3F12"/>
						</linearGradient>
						<polygon style="fill:url(#SVGID_00000060030147130764490270000007095831571875160715_);" points="270.1,265.28 368.34,353.2 
							368.34,372.93 269.42,284.4 118.05,401.66 94.07,401.66 						"/>
					</g>
				</g>
				<g>
					<g>
						
							<linearGradient id="SVGID_00000065767068990185880360000013220479175800619189_" gradientUnits="userSpaceOnUse" x1="771.2451" y1="227.3611" x2="769.4036" y2="534.8821">
							<stop  offset="0" style="stop-color:#B85527"/>
							<stop  offset="0.3771" style="stop-color:#E8763C"/>
							<stop  offset="0.6145" style="stop-color:#B85527"/>
							<stop  offset="0.7905" style="stop-color:#E8763C"/>
							<stop  offset="0.9358" style="stop-color:#9C3F12"/>
						</linearGradient>
						<polygon style="fill:url(#SVGID_00000065767068990185880360000013220479175800619189_);" points="906.73,401.66 
							882.73,401.66 731.37,284.4 633.97,371.56 633.97,351.83 730.69,265.28 						"/>
					</g>
				</g>
				<g>
					<g>
						
							<linearGradient id="SVGID_00000078019310949810867430000010146506969510216600_" gradientUnits="userSpaceOnUse" x1="163.1942" y1="223.7269" x2="161.3528" y2="531.2291">
							<stop  offset="0" style="stop-color:#B85527"/>
							<stop  offset="0.3771" style="stop-color:#E8763C"/>
							<stop  offset="0.6145" style="stop-color:#B85527"/>
							<stop  offset="0.7905" style="stop-color:#E8763C"/>
							<stop  offset="0.9358" style="stop-color:#9C3F12"/>
						</linearGradient>
						
							<rect x="155.15" y="357.94" style="fill:url(#SVGID_00000078019310949810867430000010146506969510216600_);" width="13.36" height="187.27"/>
					</g>
				</g>
				<g>
					<g>
						
							<linearGradient id="SVGID_00000042717158885702205550000006993178481285853350_" gradientUnits="userSpaceOnUse" x1="838.2287" y1="227.7633" x2="836.3873" y2="535.2785">
							<stop  offset="0" style="stop-color:#B85527"/>
							<stop  offset="0.3771" style="stop-color:#E8763C"/>
							<stop  offset="0.6145" style="stop-color:#B85527"/>
							<stop  offset="0.7905" style="stop-color:#E8763C"/>
							<stop  offset="0.9358" style="stop-color:#9C3F12"/>
						</linearGradient>
						
							<rect x="829.54" y="357.94" style="fill:url(#SVGID_00000042717158885702205550000006993178481285853350_);" width="14.69" height="187.27"/>
					</g>
				</g>
				<g>
					<g>
						
							<linearGradient id="SVGID_00000162313834634449820740000010463164583467942837_" gradientUnits="userSpaceOnUse" x1="386.8402" y1="167.1606" x2="386.8402" y2="596.8704">
							<stop  offset="0" style="stop-color:#B85527"/>
							<stop  offset="0.3771" style="stop-color:#E8763C"/>
							<stop  offset="0.6145" style="stop-color:#B85527"/>
							<stop  offset="0.7905" style="stop-color:#E8763C"/>
							<stop  offset="0.9358" style="stop-color:#9C3F12"/>
						</linearGradient>
						<polygon style="fill:url(#SVGID_00000162313834634449820740000010463164583467942837_);" points="394.18,246.91 
							394.18,353.54 379.5,366.85 379.5,246.91 						"/>
						
							<linearGradient id="SVGID_00000062170482189826982420000006974589044954664370_" gradientUnits="userSpaceOnUse" x1="386.8402" y1="167.1606" x2="386.8402" y2="596.8704">
							<stop  offset="0" style="stop-color:#B85527"/>
							<stop  offset="0.3771" style="stop-color:#E8763C"/>
							<stop  offset="0.6145" style="stop-color:#B85527"/>
							<stop  offset="0.7905" style="stop-color:#E8763C"/>
							<stop  offset="0.9358" style="stop-color:#9C3F12"/>
						</linearGradient>
						<polygon style="fill:url(#SVGID_00000062170482189826982420000006974589044954664370_);" points="379.5,390.02 394.18,376.71 
							394.18,545.21 379.5,545.21 						"/>
					</g>
				</g>
				<g>
					<g>
						
							<linearGradient id="SVGID_00000028305004534500635610000012883858582296138662_" gradientUnits="userSpaceOnUse" x1="615.7687" y1="167.1606" x2="615.7687" y2="596.8704">
							<stop  offset="0" style="stop-color:#B85527"/>
							<stop  offset="0.3771" style="stop-color:#E8763C"/>
							<stop  offset="0.6145" style="stop-color:#B85527"/>
							<stop  offset="0.7905" style="stop-color:#E8763C"/>
							<stop  offset="0.9358" style="stop-color:#9C3F12"/>
						</linearGradient>
						<polygon style="fill:url(#SVGID_00000028305004534500635610000012883858582296138662_);" points="623.11,246.91 
							623.11,361.19 608.42,348.04 608.42,246.91 						"/>
						
							<linearGradient id="SVGID_00000047041158239939024580000010226271212950265496_" gradientUnits="userSpaceOnUse" x1="615.7687" y1="167.1606" x2="615.7687" y2="596.8704">
							<stop  offset="0" style="stop-color:#B85527"/>
							<stop  offset="0.3771" style="stop-color:#E8763C"/>
							<stop  offset="0.6145" style="stop-color:#B85527"/>
							<stop  offset="0.7905" style="stop-color:#E8763C"/>
							<stop  offset="0.9358" style="stop-color:#9C3F12"/>
						</linearGradient>
						<polygon style="fill:url(#SVGID_00000047041158239939024580000010226271212950265496_);" points="608.42,371.09 
							623.11,384.24 623.11,545.21 608.42,545.21 						"/>
					</g>
				</g>
				<g>
					<g>
						
							<linearGradient id="SVGID_00000069374202113343604650000009846943754698166202_" gradientUnits="userSpaceOnUse" x1="503.8572" y1="173.9986" x2="501.7023" y2="533.8567">
							<stop  offset="0" style="stop-color:#B85527"/>
							<stop  offset="0.3771" style="stop-color:#E8763C"/>
							<stop  offset="0.6145" style="stop-color:#B85527"/>
							<stop  offset="0.7905" style="stop-color:#E8763C"/>
							<stop  offset="0.9358" style="stop-color:#9C3F12"/>
						</linearGradient>
						<polygon style="fill:url(#SVGID_00000069374202113343604650000009846943754698166202_);" points="374.41,414.27 
							348.84,414.27 503.69,273.97 656.02,410.28 630.01,410.05 503.76,297.08 						"/>
					</g>
				</g>
			</g>
			
				<linearGradient id="SVGID_00000013876354394427808830000014901172212845884573_" gradientUnits="userSpaceOnUse" x1="503.4477" y1="559.067" x2="503.4477" y2="374.5284">
				<stop  offset="0.3771" style="stop-color:#E8763C"/>
				<stop  offset="0.6145" style="stop-color:#B85527"/>
				<stop  offset="0.7905" style="stop-color:#E8763C"/>
				<stop  offset="0.9358" style="stop-color:#9C3F12"/>
			</linearGradient>
			<path style="fill:url(#SVGID_00000013876354394427808830000014901172212845884573_);" d="M497.78,454.14h-34.71v-34.71h34.71
				V454.14z M543.83,419.43h-34.71v34.71h34.71V419.43z M497.78,465.15h-34.71v34.71h34.71V465.15z M543.83,465.15h-34.71v34.71
				h34.71V465.15z"/>
		</g>
		<g>
			<g>
				<g>
					<g>
						
							<linearGradient id="SVGID_00000138536580234435789690000006046671939676438454_" gradientUnits="userSpaceOnUse" x1="727.6899" y1="236.3096" x2="725.9514" y2="526.6329">
							<stop  offset="0" style="stop-color:#B85527"/>
							<stop  offset="0.3771" style="stop-color:#E8763C"/>
							<stop  offset="0.6145" style="stop-color:#B85527"/>
							<stop  offset="0.7905" style="stop-color:#E8763C"/>
							<stop  offset="0.9358" style="stop-color:#9C3F12"/>
						</linearGradient>
						<path style="fill:url(#SVGID_00000138536580234435789690000006046671939676438454_);" d="M688.93,499.87v-20.73h50.38
							c5.67,0,10.28-4.61,10.28-10.28c0-5.67-4.61-10.28-10.28-10.28h-25.78c-17.09,0-31-13.91-31-31v-0.16c0-17.1,13.91-31,31-31
							h50.38v20.73h-50.38c-5.67,0-10.28,4.61-10.28,10.28v0.16c0,5.67,4.61,10.28,10.28,10.28h25.78c17.1,0,31,13.91,31,31
							c0,17.1-13.91,31-31,31H688.93z"/>
					</g>
				</g>
			</g>
		</g>
	</g>
	<g>
		<g>
			<g>
				
					<linearGradient id="SVGID_00000125600620883528797200000009194490284706659003_" gradientUnits="userSpaceOnUse" x1="90.917" y1="629.4531" x2="905.1455" y2="629.4531">
					<stop  offset="0" style="stop-color:#B85527"/>
					<stop  offset="0.3771" style="stop-color:#E8763C"/>
					<stop  offset="0.6145" style="stop-color:#B85527"/>
					<stop  offset="0.7905" style="stop-color:#E8763C"/>
					<stop  offset="0.9358" style="stop-color:#9C3F12"/>
				</linearGradient>
				<path style="fill:url(#SVGID_00000125600620883528797200000009194490284706659003_);" d="M90.92,669.07v-5.19l1.83-0.15
					c4.92-0.42,6.91-1.48,7.71-2.3c1.15-1.17,1.7-2.59,1.7-4.34v-52.44c0-3.99-0.82-5.79-1.51-6.59c-0.44-0.51-2.09-1.77-7.92-2.32
					l-1.81-0.17v-5.17h2.39l0.06,0c5.07,0.3,8.89,0.45,11.35,0.45c3.57,0,8.6-0.26,14.93-0.79c6.02-0.54,10.53-0.8,13.78-0.8
					c6.32,0,12.34,0.99,17.91,2.95c5.59,1.97,10.58,4.84,14.83,8.55c4.28,3.73,7.67,8.26,10.09,13.49
					c2.42,5.24,3.65,11.13,3.65,17.52c0,6.33-1.18,11.93-3.5,16.66c-2.32,4.73-5.54,8.65-9.56,11.67c-3.97,2.97-8.56,5.2-13.66,6.62
					c-5.03,1.4-10.43,2.12-16.03,2.12c-6.84,0-13.92-0.04-21.02-0.11c-3.56-0.08-6.26-0.11-8.04-0.11c-3.38,0-8.35,0.15-14.78,0.45
					l-0.05,0H90.92z M116.36,657.11c1.91,1.62,4.15,2.85,6.67,3.65c2.89,0.92,5.97,1.38,9.16,1.38c10.79,0,18.82-2.75,23.85-8.16
					c5.07-5.46,7.64-13.8,7.64-24.8c0-4.63-0.83-9.02-2.46-13.04c-1.63-4.01-3.99-7.56-7-10.58c-3.01-3.01-6.61-5.39-10.69-7.05
					c-4.09-1.67-8.59-2.52-13.38-2.52c-4.46,0-8.89,0.86-13.19,2.55c-0.39,6.02-0.59,13.53-0.59,22.35V657.11z"/>
				
					<linearGradient id="SVGID_00000061430744587045886870000011083064163490481853_" gradientUnits="userSpaceOnUse" x1="90.917" y1="629.4531" x2="905.1455" y2="629.4531">
					<stop  offset="0" style="stop-color:#B85527"/>
					<stop  offset="0.3771" style="stop-color:#E8763C"/>
					<stop  offset="0.6145" style="stop-color:#B85527"/>
					<stop  offset="0.7905" style="stop-color:#E8763C"/>
					<stop  offset="0.9358" style="stop-color:#9C3F12"/>
				</linearGradient>
				<path style="fill:url(#SVGID_00000061430744587045886870000011083064163490481853_);" d="M90.92,669.07v-5.19l1.83-0.15
					c4.92-0.42,6.91-1.48,7.71-2.3c1.15-1.17,1.7-2.59,1.7-4.34v-52.44c0-3.99-0.82-5.79-1.51-6.59c-0.44-0.51-2.09-1.77-7.92-2.32
					l-1.81-0.17v-5.17h2.39l0.06,0c5.07,0.3,8.89,0.45,11.35,0.45c3.57,0,8.6-0.26,14.93-0.79c6.02-0.54,10.53-0.8,13.78-0.8
					c6.32,0,12.34,0.99,17.91,2.95c5.59,1.97,10.58,4.84,14.83,8.55c4.28,3.73,7.67,8.26,10.09,13.49
					c2.42,5.24,3.65,11.13,3.65,17.52c0,6.33-1.18,11.93-3.5,16.66c-2.32,4.73-5.54,8.65-9.56,11.67c-3.97,2.97-8.56,5.2-13.66,6.62
					c-5.03,1.4-10.43,2.12-16.03,2.12c-6.84,0-13.92-0.04-21.02-0.11c-3.56-0.08-6.26-0.11-8.04-0.11c-3.38,0-8.35,0.15-14.78,0.45
					l-0.05,0H90.92z M116.36,657.11c1.91,1.62,4.15,2.85,6.67,3.65c2.89,0.92,5.97,1.38,9.16,1.38c10.79,0,18.82-2.75,23.85-8.16
					c5.07-5.46,7.64-13.8,7.64-24.8c0-4.63-0.83-9.02-2.46-13.04c-1.63-4.01-3.99-7.56-7-10.58c-3.01-3.01-6.61-5.39-10.69-7.05
					c-4.09-1.67-8.59-2.52-13.38-2.52c-4.46,0-8.89,0.86-13.19,2.55c-0.39,6.02-0.59,13.53-0.59,22.35V657.11z"/>
			</g>
			<g>
				
					<linearGradient id="SVGID_00000139979041361740249790000013084281117105248934_" gradientUnits="userSpaceOnUse" x1="90.917" y1="629.4531" x2="905.1455" y2="629.4531">
					<stop  offset="0" style="stop-color:#B85527"/>
					<stop  offset="0.3771" style="stop-color:#E8763C"/>
					<stop  offset="0.6145" style="stop-color:#B85527"/>
					<stop  offset="0.7905" style="stop-color:#E8763C"/>
					<stop  offset="0.9358" style="stop-color:#9C3F12"/>
				</linearGradient>
				<path style="fill:url(#SVGID_00000139979041361740249790000013084281117105248934_);" d="M260.14,669.07
					c-3.4-0.3-6.01-0.45-7.77-0.45H209.7c-2.92,0-7.2,0.15-12.72,0.45l-2.44,0v-5.19l1.83-0.15c2.5-0.21,4.43-0.6,5.74-1.15
					c1.14-0.48,1.95-1.14,2.49-2c0.59-0.94,0.97-2.24,1.12-3.85c0.18-1.87,0.27-4.57,0.27-8.03v-37.91c0-3.54-0.11-6.25-0.33-8.05
					c-0.19-1.62-0.59-2.95-1.17-3.96c-0.49-0.85-1.28-1.48-2.4-1.92c-1.36-0.53-3.37-0.91-5.96-1.12l-1.83-0.15v-5.25l6.25,0.17
					c4.07,0.08,8.36,0.15,12.86,0.23c4.39,0.07,9.29,0.11,14.55,0.11c7.24,0,17.88-0.15,31.62-0.45l2.51,0l-0.14,2.12
					c-0.15,2.27-0.22,5.39-0.22,9.29c0,1.23,0.11,3.24,0.33,5.97c0.15,2.13,0.26,3.63,0.34,4.54l0.13,1.6l-5.01,1.54l-0.52-2.03
					c-0.84-3.3-2.02-6.04-3.5-8.14c-1.46-2.07-3.15-3.7-5.02-4.84c-1.9-1.16-4.03-1.97-6.33-2.41c-2.4-0.46-5.12-0.7-8.07-0.7
					c-4.55,0-9.22,0.18-13.9,0.53v24.51c0.68-0.02,1.47-0.04,2.36-0.08c1.97-0.08,3.4-0.12,4.39-0.12c4.99,0,8.82-0.97,11.41-2.9
					c2.49-1.85,4.05-5.18,4.66-9.89l0.22-1.74h5.11v1.99c0,1.8-0.04,4.49-0.11,8.21c-0.08,3.56-0.11,6.26-0.11,8.02
					c0,1.83,0.04,4.57,0.11,8.13c0.08,3.73,0.11,6.42,0.11,8.21v1.99h-4.97l-0.34-1.58c-0.64-3.01-1.42-5.48-2.29-7.34
					c-0.79-1.68-1.81-2.96-3.03-3.81c-1.27-0.89-2.83-1.5-4.66-1.83c-1.99-0.36-4.55-0.54-7.59-0.54h-5.27v31.47
					c1.19,0.23,2.62,0.45,4.26,0.64c2.4,0.29,4.53,0.44,6.34,0.44c4.46,0,8.44-0.37,11.84-1.09c3.35-0.71,6.45-1.85,9.21-3.37
					c2.78-1.53,5.46-3.54,7.97-5.98c2.56-2.49,5.24-5.58,7.97-9.19l1.25-1.65l4.04,3.3l-11.54,25.5L260.14,669.07z"/>
				
					<linearGradient id="SVGID_00000037673187009630994600000018107851481047187631_" gradientUnits="userSpaceOnUse" x1="90.917" y1="629.4531" x2="905.1455" y2="629.4531">
					<stop  offset="0" style="stop-color:#B85527"/>
					<stop  offset="0.3771" style="stop-color:#E8763C"/>
					<stop  offset="0.6145" style="stop-color:#B85527"/>
					<stop  offset="0.7905" style="stop-color:#E8763C"/>
					<stop  offset="0.9358" style="stop-color:#9C3F12"/>
				</linearGradient>
				<path style="fill:url(#SVGID_00000037673187009630994600000018107851481047187631_);" d="M260.14,669.07
					c-3.4-0.3-6.01-0.45-7.77-0.45H209.7c-2.92,0-7.2,0.15-12.72,0.45l-2.44,0v-5.19l1.83-0.15c2.5-0.21,4.43-0.6,5.74-1.15
					c1.14-0.48,1.95-1.14,2.49-2c0.59-0.94,0.97-2.24,1.12-3.85c0.18-1.87,0.27-4.57,0.27-8.03v-37.91c0-3.54-0.11-6.25-0.33-8.05
					c-0.19-1.62-0.59-2.95-1.17-3.96c-0.49-0.85-1.28-1.48-2.4-1.92c-1.36-0.53-3.37-0.91-5.96-1.12l-1.83-0.15v-5.25l6.25,0.17
					c4.07,0.08,8.36,0.15,12.86,0.23c4.39,0.07,9.29,0.11,14.55,0.11c7.24,0,17.88-0.15,31.62-0.45l2.51,0l-0.14,2.12
					c-0.15,2.27-0.22,5.39-0.22,9.29c0,1.23,0.11,3.24,0.33,5.97c0.15,2.13,0.26,3.63,0.34,4.54l0.13,1.6l-5.01,1.54l-0.52-2.03
					c-0.84-3.3-2.02-6.04-3.5-8.14c-1.46-2.07-3.15-3.7-5.02-4.84c-1.9-1.16-4.03-1.97-6.33-2.41c-2.4-0.46-5.12-0.7-8.07-0.7
					c-4.55,0-9.22,0.18-13.9,0.53v24.51c0.68-0.02,1.47-0.04,2.36-0.08c1.97-0.08,3.4-0.12,4.39-0.12c4.99,0,8.82-0.97,11.41-2.9
					c2.49-1.85,4.05-5.18,4.66-9.89l0.22-1.74h5.11v1.99c0,1.8-0.04,4.49-0.11,8.21c-0.08,3.56-0.11,6.26-0.11,8.02
					c0,1.83,0.04,4.57,0.11,8.13c0.08,3.73,0.11,6.42,0.11,8.21v1.99h-4.97l-0.34-1.58c-0.64-3.01-1.42-5.48-2.29-7.34
					c-0.79-1.68-1.81-2.96-3.03-3.81c-1.27-0.89-2.83-1.5-4.66-1.83c-1.99-0.36-4.55-0.54-7.59-0.54h-5.27v31.47
					c1.19,0.23,2.62,0.45,4.26,0.64c2.4,0.29,4.53,0.44,6.34,0.44c4.46,0,8.44-0.37,11.84-1.09c3.35-0.71,6.45-1.85,9.21-3.37
					c2.78-1.53,5.46-3.54,7.97-5.98c2.56-2.49,5.24-5.58,7.97-9.19l1.25-1.65l4.04,3.3l-11.54,25.5L260.14,669.07z"/>
			</g>
			<g>
				
					<linearGradient id="SVGID_00000121992687756729213660000017246892277696614284_" gradientUnits="userSpaceOnUse" x1="90.917" y1="629.4531" x2="905.1455" y2="629.4531">
					<stop  offset="0" style="stop-color:#B85527"/>
					<stop  offset="0.3771" style="stop-color:#E8763C"/>
					<stop  offset="0.6145" style="stop-color:#B85527"/>
					<stop  offset="0.7905" style="stop-color:#E8763C"/>
					<stop  offset="0.9358" style="stop-color:#9C3F12"/>
				</linearGradient>
				<path style="fill:url(#SVGID_00000121992687756729213660000017246892277696614284_);" d="M281.02,663.88l1.83-0.15
					c2.51-0.21,4.46-0.6,5.81-1.16c1.15-0.48,1.95-1.12,2.45-1.96c0.57-0.96,0.96-2.28,1.15-3.92c0.22-1.85,0.33-4.54,0.33-8v-37.91
					c0-3.53-0.11-6.24-0.33-8.05c-0.19-1.6-0.6-2.92-1.2-3.92c-0.53-0.87-1.34-1.51-2.48-1.96c-1.36-0.53-3.37-0.91-5.96-1.12
					l-1.83-0.15v-5.27l2.07,0.08c8.09,0.3,14.29,0.45,18.43,0.45c3.37,0,8.34-0.15,14.77-0.45l2.09-0.1v5.29l-1.83,0.15
					c-2.5,0.21-4.43,0.58-5.71,1.11c-1.06,0.44-1.82,1.07-2.32,1.93c-0.58,1-0.97,2.35-1.17,4.01c-0.22,1.84-0.33,4.53-0.33,8v14.98
					l14-11.42c3.2-2.62,5.94-5.38,8.14-8.2c2.51-3.21,3.04-5.12,3.04-6.15c0-1.82-0.79-2.53-1.48-2.95c-1.32-0.8-2.97-1.24-4.88-1.3
					l-1.93-0.06v-5.29h2.33c7.19,0.3,12.74,0.45,16.57,0.45c3.98,0,10.03-0.15,17.97-0.45l2.07-0.08v5.21l-1.77,0.2
					c-1.83,0.21-3.56,0.57-5.14,1.06c-1.55,0.48-3.15,1.2-4.75,2.14c-1.66,0.98-3.45,2.19-5.3,3.61c-1.9,1.45-4.3,3.4-7.13,5.79
					l-12.7,10.86l21.92,32.23c2.44,3.51,5.14,6.46,8.04,8.75c2.76,2.18,5.68,3.34,8.93,3.55l1.87,0.12v5.3l-2.06-0.07
					c-8.54-0.3-15.08-0.45-19.45-0.45c-3.99,0-9.77,0.15-17.17,0.45l-2.42,0v-5.21l1.85-0.13c2.79-0.21,5-0.75,6.55-1.62
					c0.79-0.45,1.71-1.23,1.71-3.31c0-0.48-0.14-0.96-0.42-1.45c-0.41-0.73-1.22-1.96-2.4-3.66c-0.81-1.18-1.33-1.92-1.55-2.21
					l-15.99-23.51l-8.45,6.6v14.12c0,3.46,0.11,6.15,0.33,8c0.19,1.63,0.59,2.93,1.19,3.88c0.53,0.86,1.38,1.51,2.58,1.99
					c1.39,0.56,3.41,0.96,6,1.17l1.83,0.15v5.19h-2.33c-7.34-0.3-13-0.45-16.91-0.45c-3.69,0-9.19,0.15-16.37,0.45l-2.08,0.09
					V663.88z"/>
				
					<linearGradient id="SVGID_00000070797992067701764930000012374292676456122773_" gradientUnits="userSpaceOnUse" x1="90.917" y1="629.4531" x2="905.1455" y2="629.4531">
					<stop  offset="0" style="stop-color:#B85527"/>
					<stop  offset="0.3771" style="stop-color:#E8763C"/>
					<stop  offset="0.6145" style="stop-color:#B85527"/>
					<stop  offset="0.7905" style="stop-color:#E8763C"/>
					<stop  offset="0.9358" style="stop-color:#9C3F12"/>
				</linearGradient>
				<path style="fill:url(#SVGID_00000070797992067701764930000012374292676456122773_);" d="M281.02,663.88l1.83-0.15
					c2.51-0.21,4.46-0.6,5.81-1.16c1.15-0.48,1.95-1.12,2.45-1.96c0.57-0.96,0.96-2.28,1.15-3.92c0.22-1.85,0.33-4.54,0.33-8v-37.91
					c0-3.53-0.11-6.24-0.33-8.05c-0.19-1.6-0.6-2.92-1.2-3.92c-0.53-0.87-1.34-1.51-2.48-1.96c-1.36-0.53-3.37-0.91-5.96-1.12
					l-1.83-0.15v-5.27l2.07,0.08c8.09,0.3,14.29,0.45,18.43,0.45c3.37,0,8.34-0.15,14.77-0.45l2.09-0.1v5.29l-1.83,0.15
					c-2.5,0.21-4.43,0.58-5.71,1.11c-1.06,0.44-1.82,1.07-2.32,1.93c-0.58,1-0.97,2.35-1.17,4.01c-0.22,1.84-0.33,4.53-0.33,8v14.98
					l14-11.42c3.2-2.62,5.94-5.38,8.14-8.2c2.51-3.21,3.04-5.12,3.04-6.15c0-1.82-0.79-2.53-1.48-2.95c-1.32-0.8-2.97-1.24-4.88-1.3
					l-1.93-0.06v-5.29h2.33c7.19,0.3,12.74,0.45,16.57,0.45c3.98,0,10.03-0.15,17.97-0.45l2.07-0.08v5.21l-1.77,0.2
					c-1.83,0.21-3.56,0.57-5.14,1.06c-1.55,0.48-3.15,1.2-4.75,2.14c-1.66,0.98-3.45,2.19-5.3,3.61c-1.9,1.45-4.3,3.4-7.13,5.79
					l-12.7,10.86l21.92,32.23c2.44,3.51,5.14,6.46,8.04,8.75c2.76,2.18,5.68,3.34,8.93,3.55l1.87,0.12v5.3l-2.06-0.07
					c-8.54-0.3-15.08-0.45-19.45-0.45c-3.99,0-9.77,0.15-17.17,0.45l-2.42,0v-5.21l1.85-0.13c2.79-0.21,5-0.75,6.55-1.62
					c0.79-0.45,1.71-1.23,1.71-3.31c0-0.48-0.14-0.96-0.42-1.45c-0.41-0.73-1.22-1.96-2.4-3.66c-0.81-1.18-1.33-1.92-1.55-2.21
					l-15.99-23.51l-8.45,6.6v14.12c0,3.46,0.11,6.15,0.33,8c0.19,1.63,0.59,2.93,1.19,3.88c0.53,0.86,1.38,1.51,2.58,1.99
					c1.39,0.56,3.41,0.96,6,1.17l1.83,0.15v5.19h-2.33c-7.34-0.3-13-0.45-16.91-0.45c-3.69,0-9.19,0.15-16.37,0.45l-2.08,0.09
					V663.88z"/>
			</g>
			<g>
				
					<linearGradient id="SVGID_00000144310291725859226030000010875702802945304971_" gradientUnits="userSpaceOnUse" x1="90.917" y1="629.4531" x2="905.1455" y2="629.4531">
					<stop  offset="0" style="stop-color:#B85527"/>
					<stop  offset="0.3771" style="stop-color:#E8763C"/>
					<stop  offset="0.6145" style="stop-color:#B85527"/>
					<stop  offset="0.7905" style="stop-color:#E8763C"/>
					<stop  offset="0.9358" style="stop-color:#9C3F12"/>
				</linearGradient>
				<path style="fill:url(#SVGID_00000144310291725859226030000010875702802945304971_);" d="M369.89,664.1l1.58-0.33
					c3.43-0.73,5.93-2.11,7.44-4.13c1.71-2.28,3.5-5.65,5.32-10.01l0.67-1.68l19.61-48.17v-0.11l0.19-0.4
					c0.52-1.12,0.6-1.53,0.61-1.59l0,0c-0.01,0-0.04-0.27-0.28-0.91c-0.23-0.62-0.51-1.23-0.84-1.82l-1.34-2.42l2.72-0.5
					c1.89-0.35,4.35-1.15,7.31-2.38c0.84-0.38,1.59-0.7,2.23-0.93l1.88-0.7l24.29,66.81c1.01,2.76,2.36,4.86,4.01,6.25
					c1.62,1.37,4.04,2.27,7.2,2.67l1.74,0.22v5.11h-2.33c-7.64-0.3-13.57-0.45-17.71-0.45c-3.14,0-5.49,0.02-7.16,0.06
					c-1.66,0.04-3.83,0.13-6.46,0.28l-4.83,0.2v-5.18l1.72-0.24c3.03-0.41,5.5-1.2,7.34-2.33c1.95-1.21,2.17-2.39,2.17-3.18
					c0-0.09-0.03-0.59-0.54-1.87c-0.17-0.42-0.3-0.77-0.38-1.03l-6.89-19.51h-20.92l-7.01,19.23l-0.25,0.63
					c-0.51,1.2-0.54,1.67-0.54,1.75c0,0.84,0.24,1.56,0.72,2.19c0.6,0.78,1.37,1.46,2.28,2c1,0.6,2.04,1.07,3.09,1.39
					c1.1,0.35,2.08,0.59,2.92,0.73l1.66,0.28v5.15l-2.09-0.11c-5.97-0.3-10.56-0.45-13.63-0.45c-2.61,0-6.47,0.11-11.49,0.34
					l-4.01,0.24V664.1z M416.5,628.43l-7.47-21.09l-8.14,21.09H416.5z"/>
				
					<linearGradient id="SVGID_00000019649919802952000630000014612394857614713535_" gradientUnits="userSpaceOnUse" x1="90.917" y1="629.4531" x2="905.1455" y2="629.4531">
					<stop  offset="0" style="stop-color:#B85527"/>
					<stop  offset="0.3771" style="stop-color:#E8763C"/>
					<stop  offset="0.6145" style="stop-color:#B85527"/>
					<stop  offset="0.7905" style="stop-color:#E8763C"/>
					<stop  offset="0.9358" style="stop-color:#9C3F12"/>
				</linearGradient>
				<path style="fill:url(#SVGID_00000019649919802952000630000014612394857614713535_);" d="M369.89,664.1l1.58-0.33
					c3.43-0.73,5.93-2.11,7.44-4.13c1.71-2.28,3.5-5.65,5.32-10.01l0.67-1.68l19.61-48.17v-0.11l0.19-0.4
					c0.52-1.12,0.6-1.53,0.61-1.59l0,0c-0.01,0-0.04-0.27-0.28-0.91c-0.23-0.62-0.51-1.23-0.84-1.82l-1.34-2.42l2.72-0.5
					c1.89-0.35,4.35-1.15,7.31-2.38c0.84-0.38,1.59-0.7,2.23-0.93l1.88-0.7l24.29,66.81c1.01,2.76,2.36,4.86,4.01,6.25
					c1.62,1.37,4.04,2.27,7.2,2.67l1.74,0.22v5.11h-2.33c-7.64-0.3-13.57-0.45-17.71-0.45c-3.14,0-5.49,0.02-7.16,0.06
					c-1.66,0.04-3.83,0.13-6.46,0.28l-4.83,0.2v-5.18l1.72-0.24c3.03-0.41,5.5-1.2,7.34-2.33c1.95-1.21,2.17-2.39,2.17-3.18
					c0-0.09-0.03-0.59-0.54-1.87c-0.17-0.42-0.3-0.77-0.38-1.03l-6.89-19.51h-20.92l-7.01,19.23l-0.25,0.63
					c-0.51,1.2-0.54,1.67-0.54,1.75c0,0.84,0.24,1.56,0.72,2.19c0.6,0.78,1.37,1.46,2.28,2c1,0.6,2.04,1.07,3.09,1.39
					c1.1,0.35,2.08,0.59,2.92,0.73l1.66,0.28v5.15l-2.09-0.11c-5.97-0.3-10.56-0.45-13.63-0.45c-2.61,0-6.47,0.11-11.49,0.34
					l-4.01,0.24V664.1z M416.5,628.43l-7.47-21.09l-8.14,21.09H416.5z"/>
			</g>
			<g>
				
					<linearGradient id="SVGID_00000049214811815832281790000010525737215517379474_" gradientUnits="userSpaceOnUse" x1="90.917" y1="629.4531" x2="905.1455" y2="629.4531">
					<stop  offset="0" style="stop-color:#B85527"/>
					<stop  offset="0.3771" style="stop-color:#E8763C"/>
					<stop  offset="0.6145" style="stop-color:#B85527"/>
					<stop  offset="0.7905" style="stop-color:#E8763C"/>
					<stop  offset="0.9358" style="stop-color:#9C3F12"/>
				</linearGradient>
				<path style="fill:url(#SVGID_00000049214811815832281790000010525737215517379474_);" d="M553.29,663.88l1.83-0.15
					c2.51-0.21,4.46-0.6,5.81-1.16c1.15-0.48,1.96-1.12,2.46-1.96c0.57-0.96,0.96-2.28,1.15-3.92c0.22-1.84,0.33-4.53,0.33-8v-18.43
					h-38.12v18.43c0,3.46,0.11,6.15,0.33,8c0.19,1.63,0.59,2.94,1.18,3.88c0.53,0.86,1.38,1.5,2.58,1.99c1.39,0.56,3.41,0.96,6,1.17
					l1.83,0.15v5.19h-2.34c-7.34-0.3-13-0.45-16.91-0.45c-3.69,0-9.19,0.15-16.37,0.45l-2.08,0.09v-5.27l1.83-0.15
					c2.51-0.21,4.46-0.6,5.82-1.16c1.15-0.48,1.96-1.12,2.46-1.96c0.57-0.96,0.96-2.28,1.15-3.92c0.22-1.85,0.33-4.54,0.33-8v-37.91
					c0-3.53-0.11-6.24-0.33-8.05c-0.19-1.6-0.59-2.92-1.2-3.92c-0.53-0.87-1.34-1.51-2.48-1.96c-1.36-0.53-3.37-0.91-5.96-1.12
					l-1.83-0.15v-5.27l2.07,0.08c8.09,0.3,14.29,0.45,18.42,0.45c3.37,0,8.34-0.15,14.77-0.45l2.09-0.1v5.29l-1.83,0.15
					c-2.5,0.21-4.42,0.58-5.71,1.11c-1.06,0.44-1.82,1.07-2.32,1.93c-0.58,1-0.97,2.35-1.17,4.01c-0.22,1.84-0.33,4.53-0.33,7.99
					v11.85h38.12v-11.85c0-3.54-0.11-6.25-0.33-8.05c-0.19-1.6-0.6-2.92-1.2-3.92c-0.53-0.87-1.34-1.51-2.48-1.96
					c-1.36-0.53-3.37-0.91-5.96-1.12l-1.83-0.15v-5.27l2.07,0.08c8.09,0.3,14.29,0.45,18.43,0.45c3.37,0,8.34-0.15,14.77-0.45
					l2.09-0.1v5.29l-1.83,0.15c-2.5,0.21-4.42,0.58-5.71,1.11c-1.06,0.44-1.82,1.07-2.32,1.93c-0.58,1.01-0.97,2.35-1.17,4.01
					c-0.22,1.84-0.33,4.53-0.33,8v37.91c0,3.46,0.11,6.15,0.33,8c0.19,1.63,0.59,2.93,1.18,3.88c0.53,0.86,1.38,1.51,2.58,1.99
					c1.39,0.56,3.41,0.96,6,1.17l1.83,0.15v5.19h-2.33c-7.34-0.3-13-0.45-16.91-0.45c-3.69,0-9.19,0.15-16.37,0.45l-2.08,0.09
					V663.88z"/>
				
					<linearGradient id="SVGID_00000155857786117989934840000010280059647538756793_" gradientUnits="userSpaceOnUse" x1="90.917" y1="629.4531" x2="905.1455" y2="629.4531">
					<stop  offset="0" style="stop-color:#B85527"/>
					<stop  offset="0.3771" style="stop-color:#E8763C"/>
					<stop  offset="0.6145" style="stop-color:#B85527"/>
					<stop  offset="0.7905" style="stop-color:#E8763C"/>
					<stop  offset="0.9358" style="stop-color:#9C3F12"/>
				</linearGradient>
				<path style="fill:url(#SVGID_00000155857786117989934840000010280059647538756793_);" d="M553.29,663.88l1.83-0.15
					c2.51-0.21,4.46-0.6,5.81-1.16c1.15-0.48,1.96-1.12,2.46-1.96c0.57-0.96,0.96-2.28,1.15-3.92c0.22-1.84,0.33-4.53,0.33-8v-18.43
					h-38.12v18.43c0,3.46,0.11,6.15,0.33,8c0.19,1.63,0.59,2.94,1.18,3.88c0.53,0.86,1.38,1.5,2.58,1.99c1.39,0.56,3.41,0.96,6,1.17
					l1.83,0.15v5.19h-2.34c-7.34-0.3-13-0.45-16.91-0.45c-3.69,0-9.19,0.15-16.37,0.45l-2.08,0.09v-5.27l1.83-0.15
					c2.51-0.21,4.46-0.6,5.82-1.16c1.15-0.48,1.96-1.12,2.46-1.96c0.57-0.96,0.96-2.28,1.15-3.92c0.22-1.85,0.33-4.54,0.33-8v-37.91
					c0-3.53-0.11-6.24-0.33-8.05c-0.19-1.6-0.59-2.92-1.2-3.92c-0.53-0.87-1.34-1.51-2.48-1.96c-1.36-0.53-3.37-0.91-5.96-1.12
					l-1.83-0.15v-5.27l2.07,0.08c8.09,0.3,14.29,0.45,18.42,0.45c3.37,0,8.34-0.15,14.77-0.45l2.09-0.1v5.29l-1.83,0.15
					c-2.5,0.21-4.42,0.58-5.71,1.11c-1.06,0.44-1.82,1.07-2.32,1.93c-0.58,1-0.97,2.35-1.17,4.01c-0.22,1.84-0.33,4.53-0.33,7.99
					v11.85h38.12v-11.85c0-3.54-0.11-6.25-0.33-8.05c-0.19-1.6-0.6-2.92-1.2-3.92c-0.53-0.87-1.34-1.51-2.48-1.96
					c-1.36-0.53-3.37-0.91-5.96-1.12l-1.83-0.15v-5.27l2.07,0.08c8.09,0.3,14.29,0.45,18.43,0.45c3.37,0,8.34-0.15,14.77-0.45
					l2.09-0.1v5.29l-1.83,0.15c-2.5,0.21-4.42,0.58-5.71,1.11c-1.06,0.44-1.82,1.07-2.32,1.93c-0.58,1.01-0.97,2.35-1.17,4.01
					c-0.22,1.84-0.33,4.53-0.33,8v37.91c0,3.46,0.11,6.15,0.33,8c0.19,1.63,0.59,2.93,1.18,3.88c0.53,0.86,1.38,1.51,2.58,1.99
					c1.39,0.56,3.41,0.96,6,1.17l1.83,0.15v5.19h-2.33c-7.34-0.3-13-0.45-16.91-0.45c-3.69,0-9.19,0.15-16.37,0.45l-2.08,0.09
					V663.88z"/>
			</g>
			<g>
				
					<linearGradient id="SVGID_00000113314975393884155630000011323238150615501490_" gradientUnits="userSpaceOnUse" x1="90.917" y1="629.4531" x2="905.1455" y2="629.4531">
					<stop  offset="0" style="stop-color:#B85527"/>
					<stop  offset="0.3771" style="stop-color:#E8763C"/>
					<stop  offset="0.6145" style="stop-color:#B85527"/>
					<stop  offset="0.7905" style="stop-color:#E8763C"/>
					<stop  offset="0.9358" style="stop-color:#9C3F12"/>
				</linearGradient>
				<path style="fill:url(#SVGID_00000113314975393884155630000011323238150615501490_);" d="M649.49,670.89
					c-5.94,0-11.64-0.94-16.94-2.78c-5.33-1.85-10.08-4.62-14.12-8.23c-4.05-3.61-7.26-8.04-9.52-13.17
					c-2.26-5.11-3.4-10.83-3.4-16.98c0-6.23,1.15-11.96,3.41-17.04c2.26-5.08,5.46-9.49,9.52-13.1c4.04-3.6,8.79-6.37,14.12-8.23
					c5.3-1.84,11-2.78,16.94-2.78s11.65,0.93,16.94,2.78c5.34,1.86,10.09,4.63,14.12,8.23c4.05,3.62,7.25,8.03,9.52,13.1
					s3.41,10.81,3.41,17.04c0,6.15-1.15,11.86-3.41,16.98c-2.26,5.12-5.47,9.55-9.52,13.17c-4.04,3.6-8.79,6.37-14.12,8.23
					C661.13,669.96,655.43,670.89,649.49,670.89z M649.49,596.66c-4.21,0-8.09,0.87-11.54,2.57c-3.46,1.72-6.44,4.13-8.85,7.17
					c-2.45,3.09-4.34,6.68-5.62,10.66c-1.29,4.02-1.95,8.28-1.95,12.67c0,4.39,0.66,8.65,1.95,12.67c1.28,3.99,3.17,7.58,5.62,10.67
					c2.42,3.04,5.39,5.46,8.86,7.17c3.45,1.71,7.33,2.57,11.54,2.57s8.09-0.87,11.54-2.57c3.46-1.71,6.44-4.12,8.86-7.17
					c2.45-3.09,4.34-6.67,5.62-10.67c1.29-4.02,1.95-8.28,1.95-12.67c0-4.39-0.66-8.65-1.95-12.67c-1.28-3.99-3.17-7.58-5.62-10.66
					c-2.41-3.04-5.39-5.45-8.86-7.17C657.58,597.53,653.7,596.66,649.49,596.66z"/>
				
					<linearGradient id="SVGID_00000097468445642910681340000003639752415968359345_" gradientUnits="userSpaceOnUse" x1="90.917" y1="629.4531" x2="905.1455" y2="629.4531">
					<stop  offset="0" style="stop-color:#B85527"/>
					<stop  offset="0.3771" style="stop-color:#E8763C"/>
					<stop  offset="0.6145" style="stop-color:#B85527"/>
					<stop  offset="0.7905" style="stop-color:#E8763C"/>
					<stop  offset="0.9358" style="stop-color:#9C3F12"/>
				</linearGradient>
				<path style="fill:url(#SVGID_00000097468445642910681340000003639752415968359345_);" d="M649.49,670.89
					c-5.94,0-11.64-0.94-16.94-2.78c-5.33-1.85-10.08-4.62-14.12-8.23c-4.05-3.61-7.26-8.04-9.52-13.17
					c-2.26-5.11-3.4-10.83-3.4-16.98c0-6.23,1.15-11.96,3.41-17.04c2.26-5.08,5.46-9.49,9.52-13.1c4.04-3.6,8.79-6.37,14.12-8.23
					c5.3-1.84,11-2.78,16.94-2.78s11.65,0.93,16.94,2.78c5.34,1.86,10.09,4.63,14.12,8.23c4.05,3.62,7.25,8.03,9.52,13.1
					s3.41,10.81,3.41,17.04c0,6.15-1.15,11.86-3.41,16.98c-2.26,5.12-5.47,9.55-9.52,13.17c-4.04,3.6-8.79,6.37-14.12,8.23
					C661.13,669.96,655.43,670.89,649.49,670.89z M649.49,596.66c-4.21,0-8.09,0.87-11.54,2.57c-3.46,1.72-6.44,4.13-8.85,7.17
					c-2.45,3.09-4.34,6.68-5.62,10.66c-1.29,4.02-1.95,8.28-1.95,12.67c0,4.39,0.66,8.65,1.95,12.67c1.28,3.99,3.17,7.58,5.62,10.67
					c2.42,3.04,5.39,5.46,8.86,7.17c3.45,1.71,7.33,2.57,11.54,2.57s8.09-0.87,11.54-2.57c3.46-1.71,6.44-4.12,8.86-7.17
					c2.45-3.09,4.34-6.67,5.62-10.67c1.29-4.02,1.95-8.28,1.95-12.67c0-4.39-0.66-8.65-1.95-12.67c-1.28-3.99-3.17-7.58-5.62-10.66
					c-2.41-3.04-5.39-5.45-8.86-7.17C657.58,597.53,653.7,596.66,649.49,596.66z"/>
			</g>
			<g>
				
					<linearGradient id="SVGID_00000158003296862252136330000010303699094782753690_" gradientUnits="userSpaceOnUse" x1="90.917" y1="629.4531" x2="905.1455" y2="629.4531">
					<stop  offset="0" style="stop-color:#B85527"/>
					<stop  offset="0.3771" style="stop-color:#E8763C"/>
					<stop  offset="0.6145" style="stop-color:#B85527"/>
					<stop  offset="0.7905" style="stop-color:#E8763C"/>
					<stop  offset="0.9358" style="stop-color:#9C3F12"/>
				</linearGradient>
				<path style="fill:url(#SVGID_00000158003296862252136330000010303699094782753690_);" d="M703.79,663.85l1.86-0.12
					c3.05-0.2,5.81-1.08,8.2-2.59c2.21-1.4,3.45-3.13,3.81-5.29c0.45-2.45,0.97-6.19,1.58-11.15c0.23-1.76,0.5-3.7,0.8-5.83
					l5.29-39.22c-1.17-0.8-2.54-1.51-4.09-2.11c-2.04-0.79-4.2-1.4-6.41-1.83l-1.62-0.31v-5.07l2.06,0.07
					c8.54,0.3,15.05,0.45,19.34,0.45c3.07,0,7.73-0.15,13.86-0.45l2.09-0.1v5.05l-1.55,0.35c-1.34,0.3-2.44,0.83-3.28,1.55
					c-0.41,0.35-0.95,1-0.95,2.52c0,0.96,0.31,2.85,1.78,6.39l0.05,0.14l0.09,0.28l14.28,35.04c7.55-15.85,13.62-30.44,18.1-43.45
					c-1.18-0.99-2.8-1.83-4.82-2.53l-1.35-0.46v-4.87l2.08,0.09c7.19,0.3,12.66,0.45,16.26,0.45c3.22,0,8.04-0.15,14.32-0.45
					l2.09-0.1v5.14l-1.67,0.28c-3.29,0.55-5.74,1.43-7.28,2.62c-1.29,1-1.95,2.85-1.95,5.51c0,1.73,0.26,4.68,0.78,8.77
					c0.52,4.14,1.24,8.9,2.14,14.16c0.91,5.31,1.84,10.45,2.77,15.28c0.94,4.9,1.83,9.19,2.65,12.76c0.67,3.01,1.64,5.13,2.89,6.32
					c0.85,0.81,2.95,1.91,8.14,2.59l1.74,0.23v5.18l-2.07-0.08c-7.93-0.3-13.98-0.45-17.97-0.45c-3.84,0-9.38,0.15-16.49,0.45
					l-2.42,0V664l1.7-0.26c3.71-0.56,6.44-1.39,8.12-2.48c1.32-0.85,1.98-2.67,1.98-5.42c0-2.67-0.26-5.53-0.77-8.52l-6.72-39.24
					c-1.87,4.52-4.24,10.13-7.08,16.76c-3.98,9.23-7.28,17.1-9.8,23.39c-2.5,6.23-4.75,12.61-6.7,18.96l-0.43,1.41h-3.19l-0.43-1.42
					c-3.14-10.47-6.96-21.1-11.34-31.58c-3.71-8.88-8.03-18.59-12.88-28.94c-0.3,2.27-0.62,4.71-0.96,7.31
					c-0.68,5.28-1.25,10.32-1.7,14.98c-0.45,4.71-0.83,9.11-1.13,13.07c-0.3,3.93-0.45,6.9-0.45,8.82c0,4.74,0.77,8.19,2.22,9.98
					c1.37,1.7,4.5,2.7,9.04,2.9l1.91,0.08v5.26h-2.33c-7.93-0.3-14.05-0.45-18.27-0.45c-3.08,0-7.74,0.15-13.86,0.45l-2.09,0.1
					V663.85z"/>
				
					<linearGradient id="SVGID_00000162319044236568338300000003945874970139433126_" gradientUnits="userSpaceOnUse" x1="90.917" y1="629.4531" x2="905.1455" y2="629.4531">
					<stop  offset="0" style="stop-color:#B85527"/>
					<stop  offset="0.3771" style="stop-color:#E8763C"/>
					<stop  offset="0.6145" style="stop-color:#B85527"/>
					<stop  offset="0.7905" style="stop-color:#E8763C"/>
					<stop  offset="0.9358" style="stop-color:#9C3F12"/>
				</linearGradient>
				<path style="fill:url(#SVGID_00000162319044236568338300000003945874970139433126_);" d="M703.79,663.85l1.86-0.12
					c3.05-0.2,5.81-1.08,8.2-2.59c2.21-1.4,3.45-3.13,3.81-5.29c0.45-2.45,0.97-6.19,1.58-11.15c0.23-1.76,0.5-3.7,0.8-5.83
					l5.29-39.22c-1.17-0.8-2.54-1.51-4.09-2.11c-2.04-0.79-4.2-1.4-6.41-1.83l-1.62-0.31v-5.07l2.06,0.07
					c8.54,0.3,15.05,0.45,19.34,0.45c3.07,0,7.73-0.15,13.86-0.45l2.09-0.1v5.05l-1.55,0.35c-1.34,0.3-2.44,0.83-3.28,1.55
					c-0.41,0.35-0.95,1-0.95,2.52c0,0.96,0.31,2.85,1.78,6.39l0.05,0.14l0.09,0.28l14.28,35.04c7.55-15.85,13.62-30.44,18.1-43.45
					c-1.18-0.99-2.8-1.83-4.82-2.53l-1.35-0.46v-4.87l2.08,0.09c7.19,0.3,12.66,0.45,16.26,0.45c3.22,0,8.04-0.15,14.32-0.45
					l2.09-0.1v5.14l-1.67,0.28c-3.29,0.55-5.74,1.43-7.28,2.62c-1.29,1-1.95,2.85-1.95,5.51c0,1.73,0.26,4.68,0.78,8.77
					c0.52,4.14,1.24,8.9,2.14,14.16c0.91,5.31,1.84,10.45,2.77,15.28c0.94,4.9,1.83,9.19,2.65,12.76c0.67,3.01,1.64,5.13,2.89,6.32
					c0.85,0.81,2.95,1.91,8.14,2.59l1.74,0.23v5.18l-2.07-0.08c-7.93-0.3-13.98-0.45-17.97-0.45c-3.84,0-9.38,0.15-16.49,0.45
					l-2.42,0V664l1.7-0.26c3.71-0.56,6.44-1.39,8.12-2.48c1.32-0.85,1.98-2.67,1.98-5.42c0-2.67-0.26-5.53-0.77-8.52l-6.72-39.24
					c-1.87,4.52-4.24,10.13-7.08,16.76c-3.98,9.23-7.28,17.1-9.8,23.39c-2.5,6.23-4.75,12.61-6.7,18.96l-0.43,1.41h-3.19l-0.43-1.42
					c-3.14-10.47-6.96-21.1-11.34-31.58c-3.71-8.88-8.03-18.59-12.88-28.94c-0.3,2.27-0.62,4.71-0.96,7.31
					c-0.68,5.28-1.25,10.32-1.7,14.98c-0.45,4.71-0.83,9.11-1.13,13.07c-0.3,3.93-0.45,6.9-0.45,8.82c0,4.74,0.77,8.19,2.22,9.98
					c1.37,1.7,4.5,2.7,9.04,2.9l1.91,0.08v5.26h-2.33c-7.93-0.3-14.05-0.45-18.27-0.45c-3.08,0-7.74,0.15-13.86,0.45l-2.09,0.1
					V663.85z"/>
			</g>
			<g>
				
					<linearGradient id="SVGID_00000021842193617312358630000015087523171645143179_" gradientUnits="userSpaceOnUse" x1="90.917" y1="629.4531" x2="905.1455" y2="629.4531">
					<stop  offset="0" style="stop-color:#B85527"/>
					<stop  offset="0.3771" style="stop-color:#E8763C"/>
					<stop  offset="0.6145" style="stop-color:#B85527"/>
					<stop  offset="0.7905" style="stop-color:#E8763C"/>
					<stop  offset="0.9358" style="stop-color:#9C3F12"/>
				</linearGradient>
				<path style="fill:url(#SVGID_00000021842193617312358630000015087523171645143179_);" d="M892.2,669.07
					c-3.4-0.3-6.01-0.45-7.77-0.45h-42.67c-2.92,0-7.2,0.15-12.72,0.45l-2.44,0v-5.19l1.83-0.15c2.5-0.21,4.43-0.6,5.74-1.15
					c1.14-0.48,1.95-1.14,2.49-2c0.59-0.94,0.97-2.23,1.12-3.85c0.18-1.88,0.27-4.58,0.27-8.03v-37.91c0-3.54-0.11-6.24-0.33-8.05
					c-0.19-1.61-0.59-2.94-1.17-3.96c-0.49-0.85-1.28-1.48-2.4-1.92c-1.36-0.53-3.37-0.91-5.96-1.12l-1.83-0.15v-5.25l6.25,0.17
					c4.07,0.08,8.36,0.15,12.86,0.23c4.39,0.07,9.29,0.11,14.55,0.11c7.25,0,17.88-0.15,31.62-0.45l2.51,0l-0.14,2.12
					c-0.15,2.28-0.22,5.4-0.22,9.29c0,1.23,0.11,3.24,0.33,5.97c0.15,2.13,0.26,3.63,0.34,4.54l0.13,1.6l-5.01,1.54l-0.52-2.03
					c-0.84-3.3-2.02-6.04-3.5-8.14c-1.46-2.07-3.15-3.7-5.02-4.84c-1.9-1.16-4.03-1.97-6.33-2.41c-2.4-0.46-5.12-0.7-8.08-0.7
					c-4.55,0-9.21,0.18-13.89,0.53v24.51c0.68-0.02,1.47-0.04,2.36-0.08c1.97-0.08,3.4-0.12,4.39-0.12c4.99,0,8.82-0.97,11.41-2.9
					c2.49-1.85,4.05-5.18,4.66-9.89l0.22-1.74h5.11v1.99c0,1.8-0.04,4.49-0.12,8.21c-0.07,3.62-0.11,6.31-0.11,8.02
					c0,1.78,0.04,4.51,0.11,8.13c0.08,3.73,0.12,6.41,0.12,8.21v1.99h-4.97l-0.34-1.58c-0.65-3.01-1.42-5.48-2.29-7.34
					c-0.79-1.68-1.81-2.96-3.03-3.81c-1.27-0.89-2.83-1.5-4.66-1.83c-2-0.36-4.55-0.54-7.59-0.54h-5.27v31.47
					c1.19,0.23,2.62,0.45,4.26,0.64c2.4,0.29,4.53,0.44,6.34,0.44c4.45,0,8.44-0.37,11.84-1.09c3.35-0.71,6.45-1.85,9.21-3.37
					c2.78-1.53,5.46-3.54,7.97-5.98c2.56-2.49,5.24-5.58,7.97-9.19l1.25-1.65l4.04,3.3l-11.54,25.5L892.2,669.07z"/>
				
					<linearGradient id="SVGID_00000116954297759077172460000008929761213036908445_" gradientUnits="userSpaceOnUse" x1="90.917" y1="629.4531" x2="905.1455" y2="629.4531">
					<stop  offset="0" style="stop-color:#B85527"/>
					<stop  offset="0.3771" style="stop-color:#E8763C"/>
					<stop  offset="0.6145" style="stop-color:#B85527"/>
					<stop  offset="0.7905" style="stop-color:#E8763C"/>
					<stop  offset="0.9358" style="stop-color:#9C3F12"/>
				</linearGradient>
				<path style="fill:url(#SVGID_00000116954297759077172460000008929761213036908445_);" d="M892.2,669.07
					c-3.4-0.3-6.01-0.45-7.77-0.45h-42.67c-2.92,0-7.2,0.15-12.72,0.45l-2.44,0v-5.19l1.83-0.15c2.5-0.21,4.43-0.6,5.74-1.15
					c1.14-0.48,1.95-1.14,2.49-2c0.59-0.94,0.97-2.23,1.12-3.85c0.18-1.88,0.27-4.58,0.27-8.03v-37.91c0-3.54-0.11-6.24-0.33-8.05
					c-0.19-1.61-0.59-2.94-1.17-3.96c-0.49-0.85-1.28-1.48-2.4-1.92c-1.36-0.53-3.37-0.91-5.96-1.12l-1.83-0.15v-5.25l6.25,0.17
					c4.07,0.08,8.36,0.15,12.86,0.23c4.39,0.07,9.29,0.11,14.55,0.11c7.25,0,17.88-0.15,31.62-0.45l2.51,0l-0.14,2.12
					c-0.15,2.28-0.22,5.4-0.22,9.29c0,1.23,0.11,3.24,0.33,5.97c0.15,2.13,0.26,3.63,0.34,4.54l0.13,1.6l-5.01,1.54l-0.52-2.03
					c-0.84-3.3-2.02-6.04-3.5-8.14c-1.46-2.07-3.15-3.7-5.02-4.84c-1.9-1.16-4.03-1.97-6.33-2.41c-2.4-0.46-5.12-0.7-8.08-0.7
					c-4.55,0-9.21,0.18-13.89,0.53v24.51c0.68-0.02,1.47-0.04,2.36-0.08c1.97-0.08,3.4-0.12,4.39-0.12c4.99,0,8.82-0.97,11.41-2.9
					c2.49-1.85,4.05-5.18,4.66-9.89l0.22-1.74h5.11v1.99c0,1.8-0.04,4.49-0.12,8.21c-0.07,3.62-0.11,6.31-0.11,8.02
					c0,1.78,0.04,4.51,0.11,8.13c0.08,3.73,0.12,6.41,0.12,8.21v1.99h-4.97l-0.34-1.58c-0.65-3.01-1.42-5.48-2.29-7.34
					c-0.79-1.68-1.81-2.96-3.03-3.81c-1.27-0.89-2.83-1.5-4.66-1.83c-2-0.36-4.55-0.54-7.59-0.54h-5.27v31.47
					c1.19,0.23,2.62,0.45,4.26,0.64c2.4,0.29,4.53,0.44,6.34,0.44c4.45,0,8.44-0.37,11.84-1.09c3.35-0.71,6.45-1.85,9.21-3.37
					c2.78-1.53,5.46-3.54,7.97-5.98c2.56-2.49,5.24-5.58,7.97-9.19l1.25-1.65l4.04,3.3l-11.54,25.5L892.2,669.07z"/>
			</g>
		</g>
	</g>
	<g>
		<g>
			
				<linearGradient id="SVGID_00000041273884249799783810000006943767896260771499_" gradientUnits="userSpaceOnUse" x1="218.8118" y1="726.5806" x2="769.6741" y2="726.5806">
				<stop  offset="0" style="stop-color:#B85527"/>
				<stop  offset="0.3771" style="stop-color:#E8763C"/>
				<stop  offset="0.6145" style="stop-color:#B85527"/>
				<stop  offset="0.7905" style="stop-color:#E8763C"/>
				<stop  offset="0.9358" style="stop-color:#9C3F12"/>
			</linearGradient>
			<path style="fill:url(#SVGID_00000041273884249799783810000006943767896260771499_);" d="M253.24,715.9
				c-0.72-1.74-1.6-3.39-2.65-4.96c-1.05-1.56-2.28-2.98-3.69-4.26c-1.41-1.28-2.96-2.29-4.65-3.04c-1.69-0.74-3.48-1.11-5.38-1.11
				c-3.13,0-5.57,0.58-7.34,1.73c-1.77,1.15-2.65,3.03-2.65,5.65c0,1.44,0.35,2.72,1.04,3.84c0.69,1.13,1.63,2.13,2.81,3
				c1.18,0.87,2.47,1.64,3.88,2.31c1.41,0.67,3.16,1.46,5.26,2.38c2.82,1.18,5.08,2.19,6.8,3.04c1.72,0.85,3.35,1.91,4.92,3.19
				c1.56,1.28,2.82,2.83,3.77,4.65c0.95,1.82,1.42,3.93,1.42,6.34c0,4.76-1.61,8.36-4.84,10.8c-3.23,2.43-7.35,3.65-12.37,3.65
				c-1.33,0-2.7-0.12-4.11-0.35c-1.41-0.23-3.16-0.58-5.26-1.04c-2.41-0.56-3.95-0.85-4.61-0.85c-0.67,0-1.56,0.21-2.69,0.62
				c-0.26,0.1-0.44,0.18-0.54,0.23c-0.56-3.69-1.69-9.17-3.38-16.44l-0.15-0.69l1-0.54c1.08,2.05,2.25,4.01,3.53,5.88
				c1.28,1.87,2.74,3.62,4.38,5.26c1.64,1.64,3.44,2.96,5.42,3.96c1.97,1,4.06,1.5,6.26,1.5c3.33,0,6.06-0.74,8.18-2.23
				c2.13-1.49,3.19-3.79,3.19-6.92c0-1.74-0.38-3.27-1.15-4.57c-0.77-1.31-1.82-2.47-3.15-3.5c-1.33-1.02-2.75-1.91-4.26-2.65
				c-1.51-0.74-3.47-1.63-5.88-2.65c-2.56-1.13-4.64-2.09-6.22-2.88c-1.59-0.79-3.1-1.75-4.53-2.88c-1.44-1.13-2.57-2.43-3.42-3.92
				c-0.85-1.49-1.27-3.2-1.27-5.15c0-1.95,0.38-3.74,1.15-5.38c0.77-1.64,1.82-3.05,3.15-4.23c1.33-1.18,2.85-2.08,4.57-2.69
				c1.72-0.62,3.52-0.92,5.42-0.92c1.69,0,3.23,0.1,4.61,0.31c1.38,0.21,3.02,0.51,4.92,0.92l1.08,0.23
				c1.64,0.36,3.05,0.63,4.23,0.81c1.18,0.18,2.41,0.27,3.69,0.27c0,5.53,0.2,9.96,0.61,13.29H253.24z"/>
			
				<linearGradient id="SVGID_00000121264073550383949590000013194259338229171127_" gradientUnits="userSpaceOnUse" x1="218.8118" y1="726.5806" x2="769.6741" y2="726.5806">
				<stop  offset="0" style="stop-color:#B85527"/>
				<stop  offset="0.3771" style="stop-color:#E8763C"/>
				<stop  offset="0.6145" style="stop-color:#B85527"/>
				<stop  offset="0.7905" style="stop-color:#E8763C"/>
				<stop  offset="0.9358" style="stop-color:#9C3F12"/>
			</linearGradient>
			<path style="fill:url(#SVGID_00000121264073550383949590000013194259338229171127_);" d="M277.63,715.59
				c1.46-3.28,3.5-6.08,6.11-8.41c2.61-2.33,5.65-4.1,9.11-5.3c3.46-1.2,7.13-1.81,11.03-1.81c3.89,0,7.57,0.6,11.03,1.81
				c3.46,1.2,6.49,2.97,9.11,5.3c2.61,2.33,4.65,5.14,6.11,8.41c1.46,3.28,2.19,6.94,2.19,10.99c0,4-0.73,7.65-2.19,10.95
				c-1.46,3.31-3.5,6.12-6.11,8.45c-2.61,2.33-5.65,4.1-9.11,5.3c-3.46,1.2-7.13,1.81-11.03,1.81c-3.89,0-7.57-0.6-11.03-1.81
				c-3.46-1.2-6.49-2.97-9.11-5.3c-2.61-2.33-4.65-5.15-6.11-8.45c-1.46-3.3-2.19-6.95-2.19-10.95
				C275.44,722.53,276.17,718.87,277.63,715.59z M284.97,735.57c0.92,2.87,2.27,5.42,4.03,7.65c1.77,2.23,3.92,3.97,6.45,5.22
				s5.34,1.88,8.41,1.88c3.07,0,5.88-0.63,8.41-1.88c2.54-1.26,4.69-3,6.45-5.22c1.77-2.23,3.11-4.78,4.03-7.65
				c0.92-2.87,1.38-5.86,1.38-8.99c0-3.12-0.46-6.12-1.38-8.99c-0.92-2.87-2.27-5.42-4.03-7.65c-1.77-2.23-3.92-3.97-6.45-5.22
				c-2.54-1.26-5.34-1.88-8.41-1.88c-3.07,0-5.88,0.63-8.41,1.88c-2.54,1.26-4.69,3-6.45,5.22c-1.77,2.23-3.11,4.78-4.03,7.65
				c-0.92,2.87-1.38,5.87-1.38,8.99C283.59,729.71,284.05,732.7,284.97,735.57z"/>
			
				<linearGradient id="SVGID_00000087408943773069750300000011411969711529610164_" gradientUnits="userSpaceOnUse" x1="218.8118" y1="726.5806" x2="769.6741" y2="726.5806">
				<stop  offset="0" style="stop-color:#B85527"/>
				<stop  offset="0.3771" style="stop-color:#E8763C"/>
				<stop  offset="0.6145" style="stop-color:#B85527"/>
				<stop  offset="0.7905" style="stop-color:#E8763C"/>
				<stop  offset="0.9358" style="stop-color:#9C3F12"/>
			</linearGradient>
			<path style="fill:url(#SVGID_00000087408943773069750300000011411969711529610164_);" d="M374.33,702.22
				c-2.46,0.36-4.38,0.76-5.76,1.19c-1.38,0.44-2.38,0.99-3,1.65c-0.61,0.67-1.01,1.49-1.19,2.46c-0.18,0.97-0.27,2.36-0.27,4.15
				v36.88c3.43,0.67,6.1,1,7.99,1c5.74,0,10.28-1.14,13.64-3.42c3.35-2.28,6.65-6.11,9.87-11.49h1.15l-5.92,17.21
				c-4.92-0.21-8.63-0.31-11.14-0.31h-22.59c-1.74,0-4.3,0.1-7.68,0.31v-0.92c3.12-0.31,5.2-0.97,6.22-2
				c1.02-1.02,1.54-2.61,1.54-4.76v-30.43c0-2.41-0.06-4.26-0.19-5.57c-0.13-1.31-0.45-2.38-0.96-3.23
				c-0.51-0.85-1.28-1.47-2.31-1.88c-1.03-0.41-2.46-0.69-4.3-0.85v-0.92h0.23c5.07,0.21,8.96,0.31,11.68,0.31
				c2.92,0,7.25-0.1,12.99-0.31V702.22z"/>
			
				<linearGradient id="SVGID_00000144299302705451330950000001808814268913106877_" gradientUnits="userSpaceOnUse" x1="218.8118" y1="726.5806" x2="769.6741" y2="726.5806">
				<stop  offset="0" style="stop-color:#B85527"/>
				<stop  offset="0.3771" style="stop-color:#E8763C"/>
				<stop  offset="0.6145" style="stop-color:#B85527"/>
				<stop  offset="0.7905" style="stop-color:#E8763C"/>
				<stop  offset="0.9358" style="stop-color:#9C3F12"/>
			</linearGradient>
			<path style="fill:url(#SVGID_00000144299302705451330950000001808814268913106877_);" d="M416.98,709.06
				c0-2.56-0.45-4.21-1.34-4.96c-0.9-0.74-2.55-1.34-4.96-1.81l-0.31-0.08v-0.92c5.63,0.21,9.86,0.31,12.68,0.31
				c2.05,0,5.02-0.1,8.91-0.31h0.23v0.92c-3.28,0.26-5.48,1-6.61,2.23c-1.13,1.23-1.69,3.41-1.69,6.53v25.05
				c0,2.31,0.38,4.3,1.15,5.99s1.87,3.07,3.3,4.15c2.61,2.05,6.15,3.07,10.6,3.07c3.07,0,5.69-0.46,7.84-1.38
				c2.15-0.92,3.84-2.09,5.07-3.5c1.23-1.41,2.1-2.89,2.61-4.46c0.51-1.56,0.77-3.06,0.77-4.5V713.9c0-4.2-0.47-7.11-1.42-8.72
				c-0.95-1.61-2.93-2.6-5.96-2.96v-0.92c4.2,0.21,7.35,0.31,9.45,0.31c1.74,0,4.35-0.1,7.84-0.31v0.92
				c-1.33,0.21-2.4,0.44-3.19,0.69c-0.8,0.26-1.49,0.7-2.08,1.34c-0.59,0.64-1.05,1.6-1.38,2.88c-0.33,1.28-0.5,2.97-0.5,5.07v22.98
				c0,2.97-0.53,5.58-1.58,7.84c-1.05,2.25-2.54,4.14-4.46,5.65c-1.92,1.51-4.15,2.63-6.69,3.34s-5.26,1.08-8.18,1.08
				c-2.66,0-5.2-0.36-7.61-1.08c-2.41-0.72-4.55-1.78-6.42-3.19c-1.87-1.41-3.36-3.18-4.46-5.3c-1.1-2.13-1.65-4.52-1.65-7.18
				V709.06z"/>
			
				<linearGradient id="SVGID_00000145781290255689972010000016428997434737486746_" gradientUnits="userSpaceOnUse" x1="218.8118" y1="726.5806" x2="769.6741" y2="726.5806">
				<stop  offset="0" style="stop-color:#B85527"/>
				<stop  offset="0.3771" style="stop-color:#E8763C"/>
				<stop  offset="0.6145" style="stop-color:#B85527"/>
				<stop  offset="0.7905" style="stop-color:#E8763C"/>
				<stop  offset="0.9358" style="stop-color:#9C3F12"/>
			</linearGradient>
			<path style="fill:url(#SVGID_00000145781290255689972010000016428997434737486746_);" d="M492.59,750.94
				c1.84-0.15,3.29-0.45,4.34-0.88c1.05-0.43,1.82-1.06,2.31-1.88c0.49-0.82,0.81-1.88,0.96-3.19c0.15-1.31,0.23-3.16,0.23-5.57
				v-35.65c-2.97,0-5.33,0.12-7.07,0.35c-1.74,0.23-3.25,0.76-4.53,1.58c-1.28,0.82-2.42,2.09-3.42,3.8c-1,1.72-1.98,4.11-2.96,7.18
				l-1-0.31l1.08-15.06c5.63,0.21,9.89,0.31,12.76,0.31h18.06c2.77,0,6.74-0.1,11.91-0.31h0.23l1.07,15.06l-1,0.31
				c-0.97-3.07-1.96-5.47-2.96-7.18c-1-1.72-2.14-2.98-3.42-3.8c-1.28-0.82-2.81-1.34-4.57-1.58c-1.77-0.23-4.19-0.35-7.26-0.35
				v35.65c0,2.41,0.08,4.27,0.23,5.57c0.15,1.31,0.49,2.37,1,3.19c0.51,0.82,1.31,1.45,2.38,1.88s2.56,0.73,4.46,0.88v0.92h-0.23
				c-4.97-0.21-8.79-0.31-11.45-0.31c-2.51,0-6.22,0.1-11.14,0.31V750.94z"/>
			
				<linearGradient id="SVGID_00000170994639322781671720000004421496589224372411_" gradientUnits="userSpaceOnUse" x1="218.8118" y1="726.5806" x2="769.6741" y2="726.5806">
				<stop  offset="0" style="stop-color:#B85527"/>
				<stop  offset="0.3771" style="stop-color:#E8763C"/>
				<stop  offset="0.6145" style="stop-color:#B85527"/>
				<stop  offset="0.7905" style="stop-color:#E8763C"/>
				<stop  offset="0.9358" style="stop-color:#9C3F12"/>
			</linearGradient>
			<path style="fill:url(#SVGID_00000170994639322781671720000004421496589224372411_);" d="M543.23,750.94
				c1.84-0.15,3.29-0.45,4.34-0.88c1.05-0.43,1.82-1.06,2.3-1.88c0.49-0.82,0.81-1.88,0.96-3.19c0.15-1.31,0.23-3.16,0.23-5.57
				v-25.66c0-2.46-0.08-4.33-0.23-5.61c-0.15-1.28-0.49-2.34-1-3.19c-0.51-0.85-1.29-1.47-2.34-1.88c-1.05-0.41-2.52-0.69-4.42-0.85
				v-0.92c5.53,0.21,9.71,0.31,12.52,0.31c2.31,0,5.66-0.1,10.07-0.31v0.92c-1.84,0.15-3.27,0.44-4.27,0.85
				c-1,0.41-1.74,1.04-2.23,1.88c-0.49,0.85-0.81,1.92-0.96,3.23c-0.15,1.31-0.23,3.16-0.23,5.57v25.66c0,2.41,0.08,4.27,0.23,5.57
				c0.15,1.31,0.49,2.37,1,3.19c0.51,0.82,1.31,1.45,2.38,1.88c1.08,0.43,2.56,0.73,4.46,0.88v0.92h-0.23
				c-4.97-0.21-8.79-0.31-11.45-0.31c-2.51,0-6.22,0.1-11.14,0.31V750.94z"/>
			
				<linearGradient id="SVGID_00000015350297454204907940000004130342805114743982_" gradientUnits="userSpaceOnUse" x1="218.8118" y1="726.5806" x2="769.6741" y2="726.5806">
				<stop  offset="0" style="stop-color:#B85527"/>
				<stop  offset="0.3771" style="stop-color:#E8763C"/>
				<stop  offset="0.6145" style="stop-color:#B85527"/>
				<stop  offset="0.7905" style="stop-color:#E8763C"/>
				<stop  offset="0.9358" style="stop-color:#9C3F12"/>
			</linearGradient>
			<path style="fill:url(#SVGID_00000015350297454204907940000004130342805114743982_);" d="M586.06,715.59
				c1.46-3.28,3.5-6.08,6.11-8.41c2.61-2.33,5.65-4.1,9.11-5.3c3.46-1.2,7.13-1.81,11.03-1.81c3.89,0,7.57,0.6,11.03,1.81
				c3.46,1.2,6.49,2.97,9.11,5.3c2.61,2.33,4.65,5.14,6.11,8.41c1.46,3.28,2.19,6.94,2.19,10.99c0,4-0.73,7.65-2.19,10.95
				c-1.46,3.31-3.5,6.12-6.11,8.45c-2.61,2.33-5.65,4.1-9.11,5.3c-3.46,1.2-7.13,1.81-11.03,1.81c-3.89,0-7.57-0.6-11.03-1.81
				c-3.46-1.2-6.49-2.97-9.11-5.3c-2.61-2.33-4.65-5.15-6.11-8.45c-1.46-3.3-2.19-6.95-2.19-10.95
				C583.87,722.53,584.6,718.87,586.06,715.59z M593.4,735.57c0.92,2.87,2.27,5.42,4.03,7.65c1.77,2.23,3.92,3.97,6.45,5.22
				s5.34,1.88,8.41,1.88c3.07,0,5.88-0.63,8.41-1.88c2.54-1.26,4.69-3,6.45-5.22c1.77-2.23,3.11-4.78,4.03-7.65
				c0.92-2.87,1.38-5.86,1.38-8.99c0-3.12-0.46-6.12-1.38-8.99c-0.92-2.87-2.27-5.42-4.03-7.65c-1.77-2.23-3.92-3.97-6.45-5.22
				c-2.54-1.26-5.34-1.88-8.41-1.88c-3.07,0-5.88,0.63-8.41,1.88c-2.54,1.26-4.69,3-6.45,5.22c-1.77,2.23-3.11,4.78-4.03,7.65
				c-0.92,2.87-1.38,5.87-1.38,8.99C592.02,729.71,592.48,732.7,593.4,735.57z"/>
			
				<linearGradient id="SVGID_00000042720153670574612170000016028976672863912342_" gradientUnits="userSpaceOnUse" x1="218.8118" y1="726.5806" x2="769.6741" y2="726.5806">
				<stop  offset="0" style="stop-color:#B85527"/>
				<stop  offset="0.3771" style="stop-color:#E8763C"/>
				<stop  offset="0.6145" style="stop-color:#B85527"/>
				<stop  offset="0.7905" style="stop-color:#E8763C"/>
				<stop  offset="0.9358" style="stop-color:#9C3F12"/>
			</linearGradient>
			<path style="fill:url(#SVGID_00000042720153670574612170000016028976672863912342_);" d="M656.26,701.3l1.38,0.08
				c1.49,0.05,3.01,0.1,4.57,0.15c1.56,0.05,3.16,0.08,4.8,0.08c1.38,0,3.51-0.1,6.38-0.31h0.23c0.87,1.13,2.24,2.84,4.11,5.15
				c1.87,2.3,4.44,5.43,7.72,9.37c2.46,3.02,4.54,5.58,6.26,7.68c1.71,2.1,3.52,4.32,5.42,6.65c1.89,2.33,3.5,4.33,4.8,5.99
				c1.31,1.67,2.34,3.04,3.11,4.11h0.15c0-0.51,0.03-2.05,0.08-4.61c0-2.51,0-4.02,0-4.53v-8.91c0-7.07-0.63-12.09-1.88-15.06
				c-1.26-2.97-3.83-4.61-7.72-4.92v-0.92c4.81,0.21,8.43,0.31,10.83,0.31c2.25,0,5.58-0.1,9.99-0.31v0.92
				c-3.23,0.46-5.44,1.38-6.65,2.77c-1.2,1.38-1.81,3.64-1.81,6.76v40.72h-2.84c-2.61-4.15-5.47-8.28-8.57-12.41
				c-3.1-4.12-6.19-8.03-9.26-11.72c-3.07-3.69-5.92-6.98-8.53-9.87c-2.61-2.89-5.53-6.11-8.76-9.64c-0.1,3.48-0.15,6.1-0.15,7.84
				v13.45c0,4.97,0.1,8.68,0.31,11.14c0.2,2.46,0.63,4.36,1.27,5.69c0.64,1.33,1.61,2.27,2.92,2.81c1.31,0.54,3.24,0.93,5.8,1.19
				v0.92c-6.76-0.21-11.83-0.31-15.21-0.31c-1.95,0-4.87,0.1-8.76,0.31v-0.92h0.08c2.2-0.31,3.85-0.58,4.96-0.81
				c1.1-0.23,2.06-0.62,2.88-1.15c0.82-0.54,1.43-1.31,1.84-2.31c0.41-1,0.64-2.37,0.69-4.11l0.92-35.27
				c-1.54-1.23-3.24-2.24-5.11-3.03c-1.87-0.79-3.96-1.47-6.26-2.04V701.3z"/>
			
				<linearGradient id="SVGID_00000158743146697282436060000013070636878985929386_" gradientUnits="userSpaceOnUse" x1="218.8118" y1="726.5806" x2="769.6741" y2="726.5806">
				<stop  offset="0" style="stop-color:#B85527"/>
				<stop  offset="0.3771" style="stop-color:#E8763C"/>
				<stop  offset="0.6145" style="stop-color:#B85527"/>
				<stop  offset="0.7905" style="stop-color:#E8763C"/>
				<stop  offset="0.9358" style="stop-color:#9C3F12"/>
			</linearGradient>
			<path style="fill:url(#SVGID_00000158743146697282436060000013070636878985929386_);" d="M766.14,715.9
				c-0.72-1.74-1.6-3.39-2.65-4.96c-1.05-1.56-2.28-2.98-3.69-4.26c-1.41-1.28-2.96-2.29-4.65-3.04c-1.69-0.74-3.48-1.11-5.38-1.11
				c-3.13,0-5.57,0.58-7.34,1.73c-1.77,1.15-2.65,3.03-2.65,5.65c0,1.44,0.35,2.72,1.04,3.84c0.69,1.13,1.63,2.13,2.8,3
				c1.18,0.87,2.47,1.64,3.88,2.31c1.41,0.67,3.16,1.46,5.26,2.38c2.82,1.18,5.08,2.19,6.8,3.04c1.72,0.85,3.35,1.91,4.92,3.19
				c1.56,1.28,2.82,2.83,3.77,4.65c0.95,1.82,1.42,3.93,1.42,6.34c0,4.76-1.61,8.36-4.84,10.8c-3.23,2.43-7.35,3.65-12.37,3.65
				c-1.33,0-2.7-0.12-4.11-0.35c-1.41-0.23-3.16-0.58-5.26-1.04c-2.41-0.56-3.95-0.85-4.61-0.85c-0.67,0-1.56,0.21-2.69,0.62
				c-0.26,0.1-0.44,0.18-0.54,0.23c-0.56-3.69-1.69-9.17-3.38-16.44l-0.15-0.69l1-0.54c1.08,2.05,2.25,4.01,3.53,5.88
				c1.28,1.87,2.74,3.62,4.38,5.26c1.64,1.64,3.44,2.96,5.42,3.96c1.97,1,4.06,1.5,6.26,1.5c3.33,0,6.06-0.74,8.18-2.23
				c2.12-1.49,3.19-3.79,3.19-6.92c0-1.74-0.38-3.27-1.15-4.57c-0.77-1.31-1.82-2.47-3.15-3.5c-1.33-1.02-2.75-1.91-4.26-2.65
				c-1.51-0.74-3.47-1.63-5.88-2.65c-2.56-1.13-4.64-2.09-6.22-2.88c-1.59-0.79-3.1-1.75-4.53-2.88c-1.43-1.13-2.57-2.43-3.42-3.92
				c-0.85-1.49-1.27-3.2-1.27-5.15c0-1.95,0.38-3.74,1.15-5.38c0.77-1.64,1.82-3.05,3.15-4.23c1.33-1.18,2.86-2.08,4.57-2.69
				c1.72-0.62,3.52-0.92,5.42-0.92c1.69,0,3.23,0.1,4.61,0.31c1.38,0.21,3.02,0.51,4.92,0.92l1.08,0.23
				c1.64,0.36,3.05,0.63,4.23,0.81c1.18,0.18,2.41,0.27,3.69,0.27c0,5.53,0.2,9.96,0.62,13.29H766.14z"/>
		</g>
	</g>
</g>
</svg>
